# xmcd CD database file generated by Grip 2.96
# 
# Track frame offsets:
#       150
#       22347
#       45442
#       57517
#       75869
#       92497
#       114502
#       140833
#       152414
#       170295
# 
# Disc length: 2596 seconds
# 
# Revision: 0
# Processed by: cddbd v1.4PL0 Copyright (c) Steve Scherf et al.
# Submitted via: Grip 2.96
# 
DISCID=750a220a
DTITLE=Thierry Faverial - Duone
DYEAR=1900
DGENRE=
TTITLE0=Paradizo De L' Revo
TTITLE1=Via Korpo
TTITLE2=Atendemo
TTITLE3=Al Joko
TTITLE4=Jes, Ni Solidaru
TTITLE5=Malhoma Parizo
TTITLE6=La Longa Vojagxo
TTITLE7=La Lanternulo
TTITLE8=Uliso Revenas Hejmen
TTITLE9=Duone
EXTD=
EXTT0=
EXTT1=
EXTT2=
EXTT3=
EXTT4=
EXTT5=
EXTT6=
EXTT7=
EXTT8=
EXTT9=
PLAYORDER=
